<svg width="72" height="72" viewBox="0 0 72 72" fill="none" xmlns="http://www.w3.org/2000/svg">
<rect width="72" height="72" rx="36" fill="#23A6F0"/>
<g clip-path="url(#clip0_2180_18)">
<path fill-rule="evenodd" clip-rule="evenodd" d="M50.6108 48.4325C50.6108 48.4325 52.6664 48.4325 52.6664 46.3862C52.6664 44.3399 50.6108 38.2011 42.3886 38.2011C34.1664 38.2011 32.1108 44.3399 32.1108 46.3862C32.1108 48.4325 34.1664 48.4325 34.1664 48.4325H50.6108ZM34.2116 46.3862H50.5656C50.5752 46.3851 50.5848 46.3838 50.5944 46.3821L50.6108 46.378C50.6067 45.8378 50.2675 44.2704 49.0486 42.8584C47.9139 41.5345 45.92 40.2474 42.3886 40.2474C38.8592 40.2474 36.8653 41.5365 35.7286 42.8584C34.5096 44.2704 34.1684 45.8399 34.1664 46.378C34.1814 46.3809 34.1965 46.3837 34.2116 46.3862ZM42.3886 34.1085C43.4789 34.1085 44.5246 33.6773 45.2956 32.9098C46.0666 32.1423 46.4997 31.1013 46.4997 30.0159C46.4997 28.9305 46.0666 27.8895 45.2956 27.122C44.5246 26.3545 43.4789 25.9233 42.3886 25.9233C41.2982 25.9233 40.2526 26.3545 39.4816 27.122C38.7106 27.8895 38.2775 28.9305 38.2775 30.0159C38.2775 31.1013 38.7106 32.1423 39.4816 32.9098C40.2526 33.6773 41.2982 34.1085 42.3886 34.1085ZM48.5552 30.0159C48.5552 30.8221 48.3957 31.6203 48.0858 32.3651C47.7759 33.1099 47.3217 33.7867 46.7491 34.3567C46.1764 34.9268 45.4966 35.379 44.7485 35.6875C44.0003 35.996 43.1984 36.1548 42.3886 36.1548C41.5788 36.1548 40.7769 35.996 40.0287 35.6875C39.2805 35.379 38.6007 34.9268 38.0281 34.3567C37.4555 33.7867 37.0012 33.1099 36.6913 32.3651C36.3814 31.6203 36.2219 30.8221 36.2219 30.0159C36.2219 28.3878 36.8716 26.8263 38.0281 25.6751C39.1846 24.5238 40.7531 23.877 42.3886 23.877C44.0241 23.877 45.5926 24.5238 46.7491 25.6751C47.9055 26.8263 48.5552 28.3878 48.5552 30.0159ZM34.0348 38.774C33.2125 38.5163 32.3649 38.3468 31.5065 38.2686C31.0241 38.2229 30.5398 38.2004 30.0552 38.2011C21.833 38.2011 19.7775 44.3399 19.7775 46.3862C19.7775 47.7511 20.462 48.4325 21.833 48.4325H30.4992C30.1945 47.7937 30.0425 47.0933 30.0552 46.3862C30.0552 44.3195 30.8302 42.2077 32.2958 40.4438C32.7953 39.8422 33.377 39.2795 34.0348 38.774ZM29.8908 40.2474C26.4621 40.2883 24.5155 41.557 23.3952 42.8584C22.1681 44.2786 21.833 45.8522 21.833 46.3862H27.9997C27.9997 44.2479 28.6636 42.1177 29.8908 40.2474ZM22.8608 31.039C22.8608 29.4109 23.5105 27.8495 24.667 26.6982C25.8234 25.5469 27.392 24.9002 29.0275 24.9002C30.663 24.9002 32.2315 25.5469 33.388 26.6982C34.5444 27.8495 35.1941 29.4109 35.1941 31.039C35.1941 32.6672 34.5444 34.2286 33.388 35.3799C32.2315 36.5311 30.663 37.1779 29.0275 37.1779C27.392 37.1779 25.8234 36.5311 24.667 35.3799C23.5105 34.2286 22.8608 32.6672 22.8608 31.039ZM29.0275 26.9465C27.9371 26.9465 26.8915 27.3776 26.1205 28.1451C25.3495 28.9127 24.9164 29.9536 24.9164 31.039C24.9164 32.1245 25.3495 33.1654 26.1205 33.9329C26.8915 34.7004 27.9371 35.1316 29.0275 35.1316C30.1178 35.1316 31.1635 34.7004 31.9345 33.9329C32.7054 33.1654 33.1386 32.1245 33.1386 31.039C33.1386 29.9536 32.7054 28.9127 31.9345 28.1451C31.1635 27.3776 30.1178 26.9465 29.0275 26.9465Z" fill="white"/>
</g>
<defs>
<clipPath id="clip0_2180_18">
<rect width="32" height="26" fill="white" transform="translate(20 23)"/>
</clipPath>
</defs>
</svg>
