<svg width="150" height="19" viewBox="0 0 150 19" fill="none" xmlns="http://www.w3.org/2000/svg">
<path d="M0.992 18V1.2H9.2C11.312 1.2 12.896 1.6 13.952 2.4C15.024 3.2 15.56 4.256 15.56 5.568C15.56 6.448 15.344 7.216 14.912 7.872C14.48 8.512 13.888 9.008 13.136 9.36C12.384 9.712 11.52 9.888 10.544 9.888L11 8.904C12.056 8.904 12.992 9.08 13.808 9.432C14.624 9.768 15.256 10.272 15.704 10.944C16.168 11.616 16.4 12.44 16.4 13.416C16.4 14.856 15.832 15.984 14.696 16.8C13.56 17.6 11.888 18 9.68 18H0.992ZM4.856 15.072H9.392C10.4 15.072 11.16 14.912 11.672 14.592C12.2 14.256 12.464 13.728 12.464 13.008C12.464 12.304 12.2 11.784 11.672 11.448C11.16 11.096 10.4 10.92 9.392 10.92H4.568V8.088H8.72C9.664 8.088 10.384 7.928 10.88 7.608C11.392 7.272 11.648 6.768 11.648 6.096C11.648 5.44 11.392 4.952 10.88 4.632C10.384 4.296 9.664 4.128 8.72 4.128H4.856V15.072ZM19.1796 18V5.088H22.7556V8.736L22.2516 7.68C22.6356 6.768 23.2516 6.08 24.0996 5.616C24.9476 5.136 25.9796 4.896 27.1956 4.896V8.352C27.0356 8.336 26.8916 8.328 26.7636 8.328C26.6356 8.312 26.4996 8.304 26.3556 8.304C25.3316 8.304 24.4996 8.6 23.8596 9.192C23.2356 9.768 22.9236 10.672 22.9236 11.904V18H19.1796ZM36.598 18V15.48L36.358 14.928V10.416C36.358 9.616 36.11 8.992 35.614 8.544C35.134 8.096 34.39 7.872 33.382 7.872C32.694 7.872 32.014 7.984 31.342 8.208C30.686 8.416 30.126 8.704 29.662 9.072L28.318 6.456C29.022 5.96 29.87 5.576 30.862 5.304C31.854 5.032 32.862 4.896 33.886 4.896C35.854 4.896 37.382 5.36 38.47 6.288C39.558 7.216 40.102 8.664 40.102 10.632V18H36.598ZM32.662 18.192C31.654 18.192 30.79 18.024 30.07 17.688C29.35 17.336 28.798 16.864 28.414 16.272C28.03 15.68 27.838 15.016 27.838 14.28C27.838 13.512 28.022 12.84 28.39 12.264C28.774 11.688 29.374 11.24 30.19 10.92C31.006 10.584 32.07 10.416 33.382 10.416H36.814V12.6H33.79C32.91 12.6 32.302 12.744 31.966 13.032C31.646 13.32 31.486 13.68 31.486 14.112C31.486 14.592 31.67 14.976 32.038 15.264C32.422 15.536 32.942 15.672 33.598 15.672C34.222 15.672 34.782 15.528 35.278 15.24C35.774 14.936 36.134 14.496 36.358 13.92L36.934 15.648C36.662 16.48 36.166 17.112 35.446 17.544C34.726 17.976 33.798 18.192 32.662 18.192ZM51.4385 4.896C52.4625 4.896 53.3745 5.104 54.1745 5.52C54.9905 5.92 55.6305 6.544 56.0945 7.392C56.5585 8.224 56.7905 9.296 56.7905 10.608V18H53.0465V11.184C53.0465 10.144 52.8145 9.376 52.3505 8.88C51.9025 8.384 51.2625 8.136 50.4305 8.136C49.8385 8.136 49.3025 8.264 48.8225 8.52C48.3585 8.76 47.9905 9.136 47.7185 9.648C47.4625 10.16 47.3345 10.816 47.3345 11.616V18H43.5905V5.088H47.1665V8.664L46.4945 7.584C46.9585 6.72 47.6225 6.056 48.4865 5.592C49.3505 5.128 50.3345 4.896 51.4385 4.896ZM65.922 18.192C64.706 18.192 63.61 17.92 62.634 17.376C61.658 16.816 60.882 16.04 60.306 15.048C59.746 14.056 59.466 12.888 59.466 11.544C59.466 10.184 59.746 9.008 60.306 8.016C60.882 7.024 61.658 6.256 62.634 5.712C63.61 5.168 64.706 4.896 65.922 4.896C67.01 4.896 67.962 5.136 68.778 5.616C69.594 6.096 70.226 6.824 70.674 7.8C71.122 8.776 71.346 10.024 71.346 11.544C71.346 13.048 71.13 14.296 70.698 15.288C70.266 16.264 69.642 16.992 68.826 17.472C68.026 17.952 67.058 18.192 65.922 18.192ZM66.57 15.12C67.178 15.12 67.73 14.976 68.226 14.688C68.722 14.4 69.114 13.992 69.402 13.464C69.706 12.92 69.858 12.28 69.858 11.544C69.858 10.792 69.706 10.152 69.402 9.624C69.114 9.096 68.722 8.688 68.226 8.4C67.73 8.112 67.178 7.968 66.57 7.968C65.946 7.968 65.386 8.112 64.89 8.4C64.394 8.688 63.994 9.096 63.69 9.624C63.402 10.152 63.258 10.792 63.258 11.544C63.258 12.28 63.402 12.92 63.69 13.464C63.994 13.992 64.394 14.4 64.89 14.688C65.386 14.976 65.946 15.12 66.57 15.12ZM69.954 18V15.36L70.026 11.52L69.786 7.704V0.191999H73.53V18H69.954ZM77.3592 18V1.2H80.5752L90.4872 13.296H88.9272V1.2H92.7672V18H89.5752L79.6392 5.904H81.1992V18H77.3592ZM104.498 18V15.48L104.258 14.928V10.416C104.258 9.616 104.01 8.992 103.514 8.544C103.034 8.096 102.29 7.872 101.282 7.872C100.594 7.872 99.914 7.984 99.242 8.208C98.586 8.416 98.026 8.704 97.562 9.072L96.218 6.456C96.922 5.96 97.77 5.576 98.762 5.304C99.754 5.032 100.762 4.896 101.786 4.896C103.754 4.896 105.282 5.36 106.37 6.288C107.458 7.216 108.002 8.664 108.002 10.632V18H104.498ZM100.562 18.192C99.554 18.192 98.69 18.024 97.97 17.688C97.25 17.336 96.698 16.864 96.314 16.272C95.93 15.68 95.738 15.016 95.738 14.28C95.738 13.512 95.922 12.84 96.29 12.264C96.674 11.688 97.274 11.24 98.09 10.92C98.906 10.584 99.97 10.416 101.282 10.416H104.714V12.6H101.69C100.81 12.6 100.202 12.744 99.866 13.032C99.546 13.32 99.386 13.68 99.386 14.112C99.386 14.592 99.57 14.976 99.938 15.264C100.322 15.536 100.842 15.672 101.498 15.672C102.122 15.672 102.682 15.528 103.178 15.24C103.674 14.936 104.034 14.496 104.258 13.92L104.834 15.648C104.562 16.48 104.066 17.112 103.346 17.544C102.626 17.976 101.698 18.192 100.562 18.192ZM128.026 4.896C129.05 4.896 129.954 5.104 130.738 5.52C131.538 5.92 132.162 6.544 132.61 7.392C133.074 8.224 133.306 9.296 133.306 10.608V18H129.562V11.184C129.562 10.144 129.346 9.376 128.914 8.88C128.482 8.384 127.874 8.136 127.09 8.136C126.546 8.136 126.058 8.264 125.626 8.52C125.194 8.76 124.858 9.128 124.618 9.624C124.378 10.12 124.258 10.752 124.258 11.52V18H120.514V11.184C120.514 10.144 120.298 9.376 119.866 8.88C119.45 8.384 118.85 8.136 118.066 8.136C117.522 8.136 117.034 8.264 116.602 8.52C116.17 8.76 115.834 9.128 115.594 9.624C115.354 10.12 115.234 10.752 115.234 11.52V18H111.49V5.088H115.066V8.616L114.394 7.584C114.842 6.704 115.474 6.04 116.29 5.592C117.122 5.128 118.066 4.896 119.122 4.896C120.306 4.896 121.338 5.2 122.218 5.808C123.114 6.4 123.706 7.312 123.994 8.544L122.674 8.184C123.106 7.176 123.794 6.376 124.738 5.784C125.698 5.192 126.794 4.896 128.026 4.896ZM143.264 18.192C141.792 18.192 140.496 17.904 139.376 17.328C138.272 16.752 137.416 15.968 136.808 14.976C136.2 13.968 135.896 12.824 135.896 11.544C135.896 10.248 136.192 9.104 136.784 8.112C137.392 7.104 138.216 6.32 139.256 5.76C140.296 5.184 141.472 4.896 142.784 4.896C144.048 4.896 145.184 5.168 146.192 5.712C147.216 6.24 148.024 7.008 148.616 8.016C149.208 9.008 149.504 10.2 149.504 11.592C149.504 11.736 149.496 11.904 149.48 12.096C149.464 12.272 149.448 12.44 149.432 12.6H138.944V10.416H147.464L146.024 11.064C146.024 10.392 145.888 9.808 145.616 9.312C145.344 8.816 144.968 8.432 144.488 8.16C144.008 7.872 143.448 7.728 142.808 7.728C142.168 7.728 141.6 7.872 141.104 8.16C140.624 8.432 140.248 8.824 139.976 9.336C139.704 9.832 139.568 10.424 139.568 11.112V11.688C139.568 12.392 139.72 13.016 140.024 13.56C140.344 14.088 140.784 14.496 141.344 14.784C141.92 15.056 142.592 15.192 143.36 15.192C144.048 15.192 144.648 15.088 145.16 14.88C145.688 14.672 146.168 14.36 146.6 13.944L148.592 16.104C148 16.776 147.256 17.296 146.36 17.664C145.464 18.016 144.432 18.192 143.264 18.192Z" fill="#252B42"/>
</svg>
